<svg xmlns="http://www.w3.org/2000/svg" viewBox="0 0 210.91 42.58"><defs><style>.a{fill:red;}.b{fill:#2cff00;}</style></defs><title>retropage-holidays</title><path d="M13.36,22H9.16V33.28H1.5V1.5H14q5.65,0,8.84,2.51A8.5,8.5,0,0,1,26,11.1a10.32,10.32,0,0,1-1.34,5.49,9.52,9.52,0,0,1-4.2,3.53L27.13,33v.33H18.92Zm-4.2-5.86H14A4.35,4.35,0,0,0,17.29,15a4.44,4.44,0,0,0,1.07-3.21,4.49,4.49,0,0,0-1.11-3.23A4.31,4.31,0,0,0,14,7.39H9.16Z" transform="translate(0 0)"/><path d="M41.75,33.71A12.14,12.14,0,0,1,33,30.47,11.19,11.19,0,0,1,29.59,22v-.61A14.5,14.5,0,0,1,30.93,15a9.82,9.82,0,0,1,3.92-4.29A11.83,11.83,0,0,1,41,9.19a10.22,10.22,0,0,1,7.86,3.09q2.88,3.09,2.88,8.61v2.86H37.08a5.3,5.3,0,0,0,1.72,3.12A5.13,5.13,0,0,0,42.25,28a6.61,6.61,0,0,0,5.46-2.44l3.36,4a9.39,9.39,0,0,1-3.9,3A13.16,13.16,0,0,1,41.75,33.71ZM40.92,14.9q-3.23,0-3.84,4.28H44.5v-.57a3.64,3.64,0,0,0-.89-2.74A3.56,3.56,0,0,0,40.92,14.9Z" transform="translate(0 0)"/><path d="M63.22,3.79V9.66H67.1v5.11H63.22v10.8a2.76,2.76,0,0,0,.48,1.85,2.57,2.57,0,0,0,1.9.52,10.79,10.79,0,0,0,1.83-.13v5.26a13.57,13.57,0,0,1-4.15.63q-3.8,0-5.61-1.79t-1.81-5.43V14.77h-3V9.66h3V3.79Z" transform="translate(0 0)"/><path d="M84.28,16.32l-2.42-.17q-3.5,0-4.5,2.18V33.28H70.05V9.66H77l.24,3Q79,9.19,82.36,9.19a7.17,7.17,0,0,1,2.05.26Z" transform="translate(0 0)"/><path d="M85.22,21.25A13.94,13.94,0,0,1,86.6,15a9.83,9.83,0,0,1,4-4.24,11.9,11.9,0,0,1,6-1.48A10.86,10.86,0,0,1,105,12.56Q108,15.84,108,21.5v.26q0,5.52-3.07,8.76a10.89,10.89,0,0,1-8.3,3.24,11,11,0,0,1-8.1-3,11.82,11.82,0,0,1-3.3-8.2Zm7.35.46a8.78,8.78,0,0,0,1,4.8,3.42,3.42,0,0,0,3,1.53q3.93,0,4-6V21.3q0-6.35-4.06-6.35-3.69,0-4,5.48Z" transform="translate(0 0)"/><path d="M119.25,22.5V33.28h-7.66V1.5h12.68a14.77,14.77,0,0,1,6.45,1.34,10.11,10.11,0,0,1,4.34,3.82,10.43,10.43,0,0,1,1.54,5.62,9.2,9.2,0,0,1-3.33,7.43q-3.33,2.78-9.13,2.78Zm0-5.91h5a4.74,4.74,0,0,0,3.39-1.11,4.14,4.14,0,0,0,1.17-3.14,5.11,5.11,0,0,0-1.2-3.56,4.25,4.25,0,0,0-3.25-1.37h-5.11Z" transform="translate(0 0)"/><path d="M153.36,33.28a8.31,8.31,0,0,1-.7-2.12A6.84,6.84,0,0,1,147,33.71a8.38,8.38,0,0,1-5.67-2A6.42,6.42,0,0,1,139,26.64a6.6,6.6,0,0,1,2.84-5.81q2.84-2,8.25-2h2.28V17.6q0-3.27-2.82-3.27a2.3,2.3,0,0,0-2.62,2.59h-7.36a6.59,6.59,0,0,1,2.91-5.56,12.24,12.24,0,0,1,7.43-2.14,10.74,10.74,0,0,1,7.14,2.2,7.66,7.66,0,0,1,2.68,6V27.93a10.7,10.7,0,0,0,1,5v.37Zm-4.6-4.8a4.1,4.1,0,0,0,2.28-.59,3.69,3.69,0,0,0,1.3-1.33V22.78H150.2q-3.84,0-3.84,3.45a2.11,2.11,0,0,0,.68,1.63,2.45,2.45,0,0,0,1.76.62Z" transform="translate(0 0)"/><path d="M163,21.29A15.94,15.94,0,0,1,164.14,15a9.48,9.48,0,0,1,3.38-4.24,8.92,8.92,0,0,1,5.13-1.49,7.09,7.09,0,0,1,5.76,2.49l.26-2.05h6.69V32.38a10,10,0,0,1-1.45,5.42,9.32,9.32,0,0,1-4.2,3.54,15.44,15.44,0,0,1-6.35,1.23,13.33,13.33,0,0,1-5-1A9.08,9.08,0,0,1,164.58,39l3.08-4.32a6.74,6.74,0,0,0,5.41,2.42q4.89,0,4.89-5v-.74a6.91,6.91,0,0,1-5.35,2.33,8.53,8.53,0,0,1-7-3.31q-2.66-3.31-2.66-8.85Zm7.38.46a8.4,8.4,0,0,0,1.09,4.59,3.44,3.44,0,0,0,3,1.66,3.91,3.91,0,0,0,3.47-1.59V16.52a3.81,3.81,0,0,0-3.43-1.61,3.47,3.47,0,0,0-3.08,1.76,9.58,9.58,0,0,0-1.08,5.08Z" transform="translate(0 0)"/><path d="M201,33.71a12.14,12.14,0,0,1-8.8-3.24A11.19,11.19,0,0,1,188.8,22v-.61A14.5,14.5,0,0,1,190.14,15a9.82,9.82,0,0,1,3.92-4.29,11.83,11.83,0,0,1,6.11-1.52A10.22,10.22,0,0,1,208,12.28q2.88,3.09,2.88,8.61v2.86H196.29A5.3,5.3,0,0,0,198,26.87,5.13,5.13,0,0,0,201.46,28a6.61,6.61,0,0,0,5.46-2.44l3.36,4a9.39,9.39,0,0,1-3.9,3A13.16,13.16,0,0,1,201,33.71Zm-.83-18.81q-3.23,0-3.84,4.28h7.42v-.57a3.64,3.64,0,0,0-.89-2.74A3.56,3.56,0,0,0,200.13,14.9Z" transform="translate(0 0)"/><path class="a" d="M11.81,20.54H7.66V31.78H0V0H12.51q5.65,0,8.85,2.51A8.5,8.5,0,0,1,24.55,9.6a10.32,10.32,0,0,1-1.34,5.49A9.52,9.52,0,0,1,19,18.62l6.63,12.83v.33H17.42Zm-4.15-5.9h4.85a4.35,4.35,0,0,0,3.28-1.15,4.44,4.44,0,0,0,1.1-3.21A4.49,4.49,0,0,0,15.78,7a4.31,4.31,0,0,0-3.27-1.17H7.66Z" transform="translate(0 0)"/><path class="b" d="M40.25,32.21A12.14,12.14,0,0,1,31.45,29a11.19,11.19,0,0,1-3.36-8.44V20a14.5,14.5,0,0,1,1.34-6.39,9.82,9.82,0,0,1,3.93-4.32,11.83,11.83,0,0,1,6.11-1.52,10.22,10.22,0,0,1,7.89,3.09q2.88,3.09,2.88,8.61v2.86H35.58A5.3,5.3,0,0,0,37.3,25.4a5.13,5.13,0,0,0,3.45,1.14,6.61,6.61,0,0,0,5.46-2.44l3.36,4a9.39,9.39,0,0,1-3.9,3A13.16,13.16,0,0,1,40.25,32.21ZM39.42,13.4q-3.23,0-3.84,4.28H43v-.57a3.64,3.64,0,0,0-.89-2.74A3.56,3.56,0,0,0,39.42,13.4Z" transform="translate(0 0)"/><path class="a" d="M61.72,2.29V8.16H65.6v5.11H61.72v10.8a2.76,2.76,0,0,0,.48,1.85,2.57,2.57,0,0,0,1.9.52,10.79,10.79,0,0,0,1.83-.13v5.26a13.57,13.57,0,0,1-4.15.63q-3.8,0-5.61-1.79T54.36,25V13.27h-3V8.16h3V2.29Z" transform="translate(0 0)"/><path class="b" d="M82.78,14.82l-2.42-.18q-3.47,0-4.45,2.18v15H68.55V8.16h6.9l.24,3q1.85-3.47,5.17-3.47a7.17,7.17,0,0,1,2.05.26Z" transform="translate(0 0)"/><path class="a" d="M83.72,19.75a13.94,13.94,0,0,1,1.37-6.3,9.83,9.83,0,0,1,4-4.24,11.9,11.9,0,0,1,6-1.48A10.86,10.86,0,0,1,103.45,11q3.06,3.28,3.06,8.94v.26q0,5.52-3.07,8.76a10.89,10.89,0,0,1-8.3,3.24,11,11,0,0,1-8.1-3,11.82,11.82,0,0,1-3.3-8.2Zm7.35.46a8.78,8.78,0,0,0,1,4.8,3.42,3.42,0,0,0,3,1.53q3.93,0,4-6V19.8q0-6.35-4.06-6.35-3.69,0-4,5.48Z" transform="translate(0 0)"/><path class="b" d="M117.75,21V31.78h-7.66V0h12.68a14.77,14.77,0,0,1,6.45,1.34,10.11,10.11,0,0,1,4.34,3.82,10.43,10.43,0,0,1,1.54,5.62,9.2,9.2,0,0,1-3.33,7.43Q128.44,21,122.63,21Zm0-5.91h5A4.74,4.74,0,0,0,126.16,14a4.14,4.14,0,0,0,1.2-3.18,5.11,5.11,0,0,0-1.2-3.56,4.25,4.25,0,0,0-3.27-1.35h-5.11Z" transform="translate(0 0)"/><path class="a" d="M151.9,31.78a8.31,8.31,0,0,1-.7-2.12,6.84,6.84,0,0,1-5.67,2.55,8.38,8.38,0,0,1-5.67-2,6.42,6.42,0,0,1-2.33-5.07,6.6,6.6,0,0,1,2.83-5.83q2.84-2,8.25-2h2.27V16.1q0-3.27-2.82-3.27a2.3,2.3,0,0,0-2.62,2.59h-7.36A6.59,6.59,0,0,1,141,9.86a12.24,12.24,0,0,1,7.43-2.14,10.74,10.74,0,0,1,7.14,2.2,7.66,7.66,0,0,1,2.68,6V26.43a10.7,10.7,0,0,0,1,5v.37ZM147.3,27a4.1,4.1,0,0,0,2.28-.59,3.69,3.69,0,0,0,1.3-1.33V21.28h-2.14q-3.84,0-3.84,3.45a2.11,2.11,0,0,0,.68,1.63,2.45,2.45,0,0,0,1.72.64Z" transform="translate(0 0)"/><path class="b" d="M161.46,19.79a15.94,15.94,0,0,1,1.18-6.33A9.48,9.48,0,0,1,166,9.22a8.92,8.92,0,0,1,5.13-1.49,7.09,7.09,0,0,1,5.76,2.49l.26-2.05h6.68V30.88a10,10,0,0,1-1.49,5.42,9.32,9.32,0,0,1-4.2,3.54,15.44,15.44,0,0,1-6.37,1.23,13.33,13.33,0,0,1-5-1,9.08,9.08,0,0,1-3.72-2.55l3.08-4.32a6.74,6.74,0,0,0,5.41,2.42q4.89,0,4.89-5v-.74a6.91,6.91,0,0,1-5.35,2.33,8.53,8.53,0,0,1-7-3.31q-2.66-3.31-2.66-8.85Zm7.38.46a8.4,8.4,0,0,0,1.09,4.59A3.44,3.44,0,0,0,173,26.53a3.91,3.91,0,0,0,3.47-1.59V15A3.81,3.81,0,0,0,173,13.39,3.47,3.47,0,0,0,170,15.15a9.58,9.58,0,0,0-1.11,5.1Z" transform="translate(0 0)"/><path class="a" d="M199.46,32.21a12.14,12.14,0,0,1-8.8-3.21,11.19,11.19,0,0,1-3.36-8.44V20a14.5,14.5,0,0,1,1.34-6.39,9.82,9.82,0,0,1,3.92-4.29,11.83,11.83,0,0,1,6.11-1.52,10.22,10.22,0,0,1,7.86,3.09q2.83,3.06,2.83,8.58v2.86H194.79a5.3,5.3,0,0,0,1.72,3.12A5.13,5.13,0,0,0,200,26.54a6.61,6.61,0,0,0,5.46-2.44l3.36,4a9.39,9.39,0,0,1-3.9,3A13.16,13.16,0,0,1,199.46,32.21Zm-.83-18.81q-3.23,0-3.84,4.28h7.42v-.57a3.64,3.64,0,0,0-.89-2.74A3.56,3.56,0,0,0,198.63,13.4Z" transform="translate(0 0)"/></svg>