<svg xmlns="http://www.w3.org/2000/svg" viewBox="0 0 210.9 42.57"><defs><style>.a{isolation:isolate;}.b{mix-blend-mode:multiply;}.c{fill:#f44539;}</style></defs><title>retropage</title><g class="a"><g class="b"><path d="M20,28H15.8V39.28H8.14V7.5H20.65q5.65,0,8.84,2.51a8.5,8.5,0,0,1,3.19,7.09,10.32,10.32,0,0,1-1.34,5.49,9.52,9.52,0,0,1-4.2,3.53l6.63,12.83v.33H25.56ZM15.8,22.14h4.85A4.35,4.35,0,0,0,23.93,21,4.44,4.44,0,0,0,25,17.79a4.49,4.49,0,0,0-1.11-3.23,4.31,4.31,0,0,0-3.27-1.17H15.8Z" transform="translate(-6.64 -6)"/><path d="M48.39,39.71a12.14,12.14,0,0,1-8.8-3.24A11.19,11.19,0,0,1,36.23,28v-.61A14.5,14.5,0,0,1,37.57,21a9.82,9.82,0,0,1,3.92-4.29,11.83,11.83,0,0,1,6.11-1.52,10.22,10.22,0,0,1,7.86,3.09q2.88,3.09,2.88,8.61v2.86H43.72a5.3,5.3,0,0,0,1.72,3.12A5.13,5.13,0,0,0,48.89,34a6.61,6.61,0,0,0,5.46-2.44l3.36,4a9.39,9.39,0,0,1-3.9,3A13.16,13.16,0,0,1,48.39,39.71ZM47.56,20.9q-3.23,0-3.84,4.28h7.42v-.57a3.64,3.64,0,0,0-.89-2.74A3.56,3.56,0,0,0,47.56,20.9Z" transform="translate(-6.64 -6)"/><path d="M69.86,9.79v5.87h3.88v5.11H69.86v10.8a2.76,2.76,0,0,0,.48,1.85,2.57,2.57,0,0,0,1.9.52,10.79,10.79,0,0,0,1.83-.13v5.26a13.57,13.57,0,0,1-4.15.63q-3.8,0-5.61-1.79t-1.81-5.43V20.77h-3V15.66h3V9.79Z" transform="translate(-6.64 -6)"/><path d="M90.92,22.32l-2.42-.17Q85,22.14,84,24.33V39.28H76.69V15.66h6.9l.24,3q1.85-3.47,5.17-3.47a7.17,7.17,0,0,1,2.05.26Z" transform="translate(-6.64 -6)"/><path d="M91.86,27.25A13.94,13.94,0,0,1,93.24,21a9.83,9.83,0,0,1,4-4.24,11.9,11.9,0,0,1,6-1.48,10.86,10.86,0,0,1,8.36,3.28q3.06,3.28,3.06,8.94v.26q0,5.52-3.07,8.76a10.89,10.89,0,0,1-8.3,3.24,11,11,0,0,1-8.1-3,11.82,11.82,0,0,1-3.3-8.2Zm7.35.46a8.78,8.78,0,0,0,1,4.8,3.42,3.42,0,0,0,3,1.53q3.93,0,4-6v-.74q0-6.35-4.06-6.35-3.69,0-4,5.48Z" transform="translate(-6.64 -6)"/><path d="M125.89,28.5V39.28h-7.66V7.5h12.68a14.77,14.77,0,0,1,6.45,1.34,10.11,10.11,0,0,1,4.34,3.82,10.43,10.43,0,0,1,1.54,5.62,9.2,9.2,0,0,1-3.33,7.43q-3.33,2.78-9.13,2.78Zm0-5.91h5a4.74,4.74,0,0,0,3.39-1.11,4.14,4.14,0,0,0,1.17-3.14,5.11,5.11,0,0,0-1.2-3.56A4.25,4.25,0,0,0,131,13.41h-5.11Z" transform="translate(-6.64 -6)"/><path d="M160,39.28a8.31,8.31,0,0,1-.7-2.12,6.84,6.84,0,0,1-5.67,2.55,8.38,8.38,0,0,1-5.67-2,6.42,6.42,0,0,1-2.33-5.07,6.6,6.6,0,0,1,2.84-5.81q2.84-2,8.25-2H159V23.6q0-3.27-2.82-3.27a2.3,2.3,0,0,0-2.62,2.59h-7.36a6.59,6.59,0,0,1,2.91-5.56,12.24,12.24,0,0,1,7.43-2.14,10.74,10.74,0,0,1,7.14,2.2,7.66,7.66,0,0,1,2.68,6V33.93a10.7,10.7,0,0,0,1,5v.37Zm-4.6-4.8a4.1,4.1,0,0,0,2.28-.59,3.69,3.69,0,0,0,1.3-1.33V28.78h-2.14q-3.84,0-3.84,3.45a2.11,2.11,0,0,0,.68,1.63A2.45,2.45,0,0,0,155.44,34.48Z" transform="translate(-6.64 -6)"/><path d="M169.6,27.29A15.94,15.94,0,0,1,170.78,21a9.48,9.48,0,0,1,3.38-4.24,8.92,8.92,0,0,1,5.13-1.49,7.09,7.09,0,0,1,5.76,2.49l.26-2.05H192V38.38a10,10,0,0,1-1.45,5.42,9.32,9.32,0,0,1-4.2,3.54A15.44,15.44,0,0,1,180,48.57a13.33,13.33,0,0,1-5-1A9.08,9.08,0,0,1,171.22,45l3.08-4.32a6.74,6.74,0,0,0,5.41,2.42q4.89,0,4.89-5v-.74a6.91,6.91,0,0,1-5.35,2.33,8.53,8.53,0,0,1-7-3.31q-2.66-3.31-2.66-8.85Zm7.38.46a8.4,8.4,0,0,0,1.09,4.59A3.44,3.44,0,0,0,181.12,34a3.91,3.91,0,0,0,3.47-1.59V22.52a3.81,3.81,0,0,0-3.43-1.61,3.47,3.47,0,0,0-3.08,1.76A9.58,9.58,0,0,0,177,27.75Z" transform="translate(-6.64 -6)"/><path d="M207.6,39.71a12.14,12.14,0,0,1-8.8-3.24A11.19,11.19,0,0,1,195.44,28v-.61A14.5,14.5,0,0,1,196.78,21a9.82,9.82,0,0,1,3.92-4.29,11.83,11.83,0,0,1,6.11-1.52,10.22,10.22,0,0,1,7.86,3.09q2.88,3.09,2.88,8.61v2.86H202.93a5.3,5.3,0,0,0,1.72,3.12A5.13,5.13,0,0,0,208.1,34a6.61,6.61,0,0,0,5.46-2.44l3.36,4a9.39,9.39,0,0,1-3.9,3A13.16,13.16,0,0,1,207.6,39.71Zm-.83-18.81q-3.23,0-3.84,4.28h7.42v-.57a3.64,3.64,0,0,0-.89-2.74A3.56,3.56,0,0,0,206.77,20.9Z" transform="translate(-6.64 -6)"/></g><path class="c" d="M18.45,26.54H14.3V37.78H6.64V6H19.15Q24.8,6,28,8.51a8.5,8.5,0,0,1,3.19,7.09,10.32,10.32,0,0,1-1.34,5.49,9.52,9.52,0,0,1-4.2,3.53l6.63,12.83v.33H24.06ZM14.3,20.64h4.85a4.35,4.35,0,0,0,3.28-1.15,4.44,4.44,0,0,0,1.1-3.21,4.49,4.49,0,0,0-1.11-3.23,4.31,4.31,0,0,0-3.27-1.17H14.3Z" transform="translate(-6.64 -6)"/><path class="c" d="M46.89,38.21A12.14,12.14,0,0,1,38.09,35a11.19,11.19,0,0,1-3.36-8.44v-.61a14.5,14.5,0,0,1,1.34-6.39A9.82,9.82,0,0,1,40,15.24a11.83,11.83,0,0,1,6.11-1.52A10.22,10.22,0,0,1,54,16.81q2.88,3.09,2.88,8.61v2.86H42.22a5.3,5.3,0,0,0,1.72,3.12,5.13,5.13,0,0,0,3.45,1.14,6.61,6.61,0,0,0,5.46-2.44l3.36,4a9.39,9.39,0,0,1-3.9,3A13.16,13.16,0,0,1,46.89,38.21ZM46.06,19.4q-3.23,0-3.84,4.28h7.42v-.57a3.64,3.64,0,0,0-.89-2.74A3.56,3.56,0,0,0,46.06,19.4Z" transform="translate(-6.64 -6)"/><path class="c" d="M68.36,8.29v5.87h3.88v5.11H68.36v10.8a2.76,2.76,0,0,0,.48,1.85,2.57,2.57,0,0,0,1.9.52,10.79,10.79,0,0,0,1.83-.13v5.26a13.57,13.57,0,0,1-4.15.63q-3.8,0-5.61-1.79T61,31V19.27H58V14.16h3V8.29Z" transform="translate(-6.64 -6)"/><path class="c" d="M89.42,20.82,87,20.64q-3.47,0-4.45,2.18V37.78H75.19V14.16h6.9l.24,3q1.85-3.47,5.17-3.47a7.17,7.17,0,0,1,2.05.26Z" transform="translate(-6.64 -6)"/><path class="c" d="M90.36,25.75a13.94,13.94,0,0,1,1.37-6.3,9.83,9.83,0,0,1,4-4.24,11.9,11.9,0,0,1,6-1.48A10.86,10.86,0,0,1,110.09,17q3.06,3.28,3.06,8.94v.26q0,5.52-3.07,8.76a10.89,10.89,0,0,1-8.3,3.24,11,11,0,0,1-8.1-3,11.82,11.82,0,0,1-3.3-8.2Zm7.35.46a8.78,8.78,0,0,0,1,4.8,3.42,3.42,0,0,0,3,1.53q3.93,0,4-6v-.74q0-6.35-4.06-6.35-3.69,0-4,5.48Z" transform="translate(-6.64 -6)"/><path class="c" d="M124.39,27V37.78h-7.66V6h12.68a14.77,14.77,0,0,1,6.45,1.34,10.11,10.11,0,0,1,4.34,3.82,10.43,10.43,0,0,1,1.54,5.62,9.2,9.2,0,0,1-3.33,7.43Q135.08,27,129.27,27Zm0-5.91h5A4.74,4.74,0,0,0,132.8,20,4.14,4.14,0,0,0,134,16.82a5.11,5.11,0,0,0-1.2-3.56,4.25,4.25,0,0,0-3.27-1.35h-5.11Z" transform="translate(-6.64 -6)"/><path class="c" d="M158.54,37.78a8.31,8.31,0,0,1-.7-2.12,6.84,6.84,0,0,1-5.67,2.55,8.38,8.38,0,0,1-5.67-2,6.42,6.42,0,0,1-2.33-5.07A6.6,6.6,0,0,1,147,25.31q2.84-2,8.25-2h2.27V22.1q0-3.27-2.82-3.27a2.3,2.3,0,0,0-2.62,2.59h-7.36a6.59,6.59,0,0,1,2.91-5.56,12.24,12.24,0,0,1,7.43-2.14,10.74,10.74,0,0,1,7.14,2.2,7.66,7.66,0,0,1,2.68,6V32.43a10.7,10.7,0,0,0,1,5v.37Zm-4.6-4.8a4.1,4.1,0,0,0,2.28-.59,3.69,3.69,0,0,0,1.3-1.33V27.28h-2.14q-3.84,0-3.84,3.45a2.11,2.11,0,0,0,.68,1.63A2.45,2.45,0,0,0,153.94,33Z" transform="translate(-6.64 -6)"/><path class="c" d="M168.1,25.79a15.94,15.94,0,0,1,1.18-6.33,9.48,9.48,0,0,1,3.38-4.24,8.92,8.92,0,0,1,5.13-1.49,7.09,7.09,0,0,1,5.76,2.49l.26-2.05h6.68V36.88A10,10,0,0,1,189,42.3a9.32,9.32,0,0,1-4.2,3.54,15.44,15.44,0,0,1-6.37,1.23,13.33,13.33,0,0,1-5-1,9.08,9.08,0,0,1-3.72-2.55l3.08-4.32a6.74,6.74,0,0,0,5.41,2.42q4.89,0,4.89-5v-.74a6.91,6.91,0,0,1-5.35,2.33,8.53,8.53,0,0,1-7-3.31q-2.66-3.31-2.66-8.85Zm7.38.46a8.4,8.4,0,0,0,1.09,4.59,3.44,3.44,0,0,0,3.06,1.69,3.91,3.91,0,0,0,3.47-1.59V21a3.81,3.81,0,0,0-3.43-1.61,3.47,3.47,0,0,0-3.08,1.76A9.58,9.58,0,0,0,175.48,26.25Z" transform="translate(-6.64 -6)"/><path class="c" d="M206.1,38.21A12.14,12.14,0,0,1,197.3,35a11.19,11.19,0,0,1-3.36-8.44v-.61a14.5,14.5,0,0,1,1.34-6.39,9.82,9.82,0,0,1,3.92-4.29,11.83,11.83,0,0,1,6.11-1.52,10.22,10.22,0,0,1,7.86,3.09Q216,19.9,216,25.42v2.86H201.43a5.3,5.3,0,0,0,1.72,3.12,5.13,5.13,0,0,0,3.45,1.14,6.61,6.61,0,0,0,5.46-2.44l3.36,4a9.39,9.39,0,0,1-3.9,3A13.16,13.16,0,0,1,206.1,38.21Zm-.83-18.81q-3.23,0-3.84,4.28h7.42v-.57a3.64,3.64,0,0,0-.89-2.74A3.56,3.56,0,0,0,205.27,19.4Z" transform="translate(-6.64 -6)"/></g></svg>